# xmcd
#
# Track frame offsets:
#	150
#	14467
#	28635
#	44830
#	62162
#	79087
#	94380
#	115062
#	136940
#
# Disc length: 2018 seconds
#
# Revision: 2
# Processed by: cddbd v1.5.2PL0 Copyright (c) Steve Scherf et al.
# Submitted via: EZCDAudioConverter 3.1.5.1
#
DISCID=7807e009
DTITLE=Χρήστος Νικολόπουλος - Ωδείο Ηρώδου Αττικού CD2
DYEAR=2000
DGENRE=laika
TTITLE0=Δημήτρης Μπάσης - Με το Στόμα Γεμάτο Φιλιά
TTITLE1=Δημήτρης Μπάσης - Κάτω απ΄το Πουκάμισό μου
TTITLE2=Κώστας Μακεδόνας - Το Αγριολούλουδο
TTITLE3=Δημήτρης Μπάσης - Το Πές
TTITLE4=Δημήτρης Μπάσης - Με Βάρκα την Έλλαδα
TTITLE5=Ελεθερία Αρβανιτάκη - Νυχτερίδες και Αράχνες
TTITLE6=Ελεθερία Αρβανιτάκη,Δημήτρης Μπάσης,Κώστας Μακεδόνας - Στων Αγγέλων τα
TTITLE6=Μπουζούκια
TTITLE7=Ελεθερία Αρβανιτάκη - Της Καληνύχτας τα Φιλιά
TTITLE8=Ορχηστρικό - Τα ωραία του Τσιτάνη
EXTD=
EXTT0=
EXTT1=
EXTT2=
EXTT3=
EXTT4=
EXTT5=
EXTT6=
EXTT7=
EXTT8=
PLAYORDER=
